<svg width="40" height="40" viewBox="0 0 40 40" fill="none" xmlns="http://www.w3.org/2000/svg">
<circle cx="20" cy="20" r="20" fill="black"/>
<g clip-path="url(#clip0)">
<path d="M31.9758 15.0561C31.9196 13.7809 31.7134 12.9042 31.418 12.1445C31.1132 11.3381 30.6444 10.6162 30.0301 10.016C29.43 9.40652 28.7033 8.93292 27.9063 8.63294C27.1422 8.33753 26.2701 8.13131 24.9949 8.07509C23.7101 8.0141 23.3023 8 20.0438 8C16.7854 8 16.3775 8.0141 15.0976 8.07033C13.8223 8.12655 12.9457 8.33295 12.1862 8.62817C11.3796 8.93292 10.6577 9.40176 10.0575 10.016C9.44803 10.6162 8.97461 11.3429 8.67444 12.1399C8.37903 12.9042 8.17282 13.7761 8.11659 15.0513C8.05561 16.336 8.0415 16.7439 8.0415 20.0023C8.0415 23.2608 8.05561 23.6686 8.11183 24.9486C8.16805 26.2238 8.37445 27.1005 8.66986 27.8602C8.97461 28.6666 9.44803 29.3885 10.0575 29.9887C10.6577 30.5982 11.3844 31.0718 12.1814 31.3718C12.9457 31.6672 13.8176 31.8734 15.093 31.9296C16.3728 31.986 16.7808 31.9999 20.0393 31.9999C23.2977 31.9999 23.7056 31.986 24.9855 31.9296C26.2607 31.8734 27.1374 31.6672 27.8969 31.3718C29.5098 30.7482 30.7851 29.4729 31.4086 27.8602C31.7039 27.096 31.9103 26.2238 31.9665 24.9486C32.0227 23.6686 32.0368 23.2608 32.0368 20.0023C32.0368 16.7439 32.0321 16.336 31.9758 15.0561ZM29.8146 24.8549C29.7629 26.027 29.5661 26.6599 29.402 27.0819C28.9987 28.1274 28.1689 28.9572 27.1233 29.3605C26.7014 29.5246 26.0639 29.7215 24.8963 29.7729C23.6305 29.8293 23.2508 29.8433 20.0486 29.8433C16.8464 29.8433 16.462 29.8293 15.2007 29.7729C14.0286 29.7215 13.3956 29.5246 12.9737 29.3605C12.4534 29.1682 11.9798 28.8634 11.5954 28.4649C11.1968 28.0758 10.8921 27.6069 10.6998 27.0866C10.5357 26.6647 10.3388 26.027 10.2874 24.8596C10.231 23.5937 10.217 23.2139 10.217 20.0117C10.217 16.8095 10.231 16.425 10.2874 15.1639C10.3388 13.9918 10.5357 13.3589 10.6998 12.9369C10.8921 12.4165 11.1968 11.943 11.6001 11.5584C11.9891 11.1599 12.4579 10.8552 12.9784 10.6631C13.4004 10.499 14.0381 10.3021 15.2054 10.2504C16.4713 10.1942 16.8511 10.1801 20.0532 10.1801C23.2602 10.1801 23.6398 10.1942 24.9011 10.2504C26.0732 10.3021 26.7061 10.499 27.1281 10.6631C27.6484 10.8552 28.122 11.1599 28.5064 11.5584C28.9049 11.9476 29.2097 12.4165 29.402 12.9369C29.5661 13.3589 29.7629 13.9964 29.8146 15.1639C29.8708 16.4298 29.8849 16.8095 29.8849 20.0117C29.8849 23.2139 29.8708 23.589 29.8146 24.8549Z" fill="white"/>
<path d="M20.0437 13.8369C16.64 13.8369 13.8784 16.5983 13.8784 20.0022C13.8784 23.406 16.64 26.1674 20.0437 26.1674C23.4475 26.1674 26.2089 23.406 26.2089 20.0022C26.2089 16.5983 23.4475 13.8369 20.0437 13.8369ZM20.0437 24.0014C17.8356 24.0014 16.0444 22.2105 16.0444 20.0022C16.0444 17.7939 17.8356 16.0029 20.0437 16.0029C22.252 16.0029 24.0429 17.7939 24.0429 20.0022C24.0429 22.2105 22.252 24.0014 20.0437 24.0014Z" fill="white"/>
<path d="M27.8925 13.5931C27.8925 14.388 27.248 15.0324 26.453 15.0324C25.6581 15.0324 25.0137 14.388 25.0137 13.5931C25.0137 12.7981 25.6581 12.1538 26.453 12.1538C27.248 12.1538 27.8925 12.7981 27.8925 13.5931Z" fill="white"/>
</g>
<defs>
<clipPath id="clip0">
<rect width="24" height="24" fill="white" transform="translate(8 8)"/>
</clipPath>
</defs>
</svg>
