<svg width="40" height="40" viewBox="0 0 40 40" fill="none" xmlns="http://www.w3.org/2000/svg">
<circle cx="20" cy="20" r="20" fill="black"/>
<path d="M31.1922 13.6246C30.3723 13.9879 29.4906 14.2301 28.5605 14.3445C29.5063 13.7832 30.2336 12.8879 30.575 11.8301C29.6902 12.3488 28.7102 12.7297 27.6672 12.9305C26.8344 12.0477 25.6465 11.5 24.3305 11.5C21.8023 11.5 19.7535 13.5312 19.7535 16.0355C19.7535 16.3898 19.7949 16.7352 19.873 17.0703C16.0699 16.8793 12.6969 15.0715 10.4402 12.3277C10.0438 12.998 9.8207 13.7832 9.8207 14.6117C9.8207 16.1863 10.627 17.5723 11.8563 18.3891C11.1059 18.366 10.3996 18.1574 9.78125 17.8227C9.78125 17.8363 9.78125 17.8566 9.78125 17.8758C9.78125 20.0762 11.3594 21.9082 13.4512 22.3254C13.0687 22.4301 12.6648 22.4883 12.2484 22.4883C11.9527 22.4883 11.6648 22.4547 11.3859 22.4047C11.9684 24.2027 13.6582 25.5172 15.6602 25.5559C14.0938 26.7703 12.1211 27.4977 9.97578 27.4977C9.60508 27.4977 9.24297 27.4766 8.88477 27.4332C10.9109 28.7164 13.3176 29.4688 15.9008 29.4688C24.3184 29.4688 28.923 22.5562 28.923 16.5598C28.923 16.3633 28.9168 16.1676 28.9074 15.9742C29.8063 15.3398 30.5805 14.5391 31.1922 13.6246Z" fill="white"/>
</svg>
